<?xml version="1.0" encoding="utf-8"?>
<!-- Generator: Adobe Illustrator 16.0.0, SVG Export Plug-In . SVG Version: 6.00 Build 0)  -->
<!DOCTYPE svg PUBLIC "-//W3C//DTD SVG 1.1//EN" "http://www.w3.org/Graphics/SVG/1.1/DTD/svg11.dtd">
<svg version="1.1" id="Layer_1" xmlns="http://www.w3.org/2000/svg" xmlns:xlink="http://www.w3.org/1999/xlink" x="0px" y="0px"
	 width="26px" height="26px" viewBox="0 0 26 26" enable-background="new 0 0 26 26" xml:space="preserve">
<g>
	<g>
		<path fill="#2EAC4A" d="M125.04,149.535c-31.83,31.831-112.729,2.518-180.667-65.422C-123.565,16.174-152.88-64.724-121.05-96.554
			l32.962-32.962c5.788-5.788,15.098-5.788,20.885,0l33.718,33.718c5.788,5.788,5.788,15.098,0,20.884l-22.898,22.898
			c-17.74,17.74-2.139,62.655,35.605,100.523c37.743,37.869,83.665,54.225,101.405,36.486l22.772-22.898
			c5.788-5.787,15.098-5.787,20.885,0l33.718,33.719c5.788,5.788,5.788,15.098,0,20.885L125.04,149.535z"/>
		<g>
			<path fill="#2EAC4A" d="M111.704,136.2c-0.754,0.629-4.781,3.9-2.139,2.014c2.768-1.887-1.887,1.132-2.517,1.51
				c-0.882,0.504-2.769,1.887-3.9,1.887c2.014,0,3.522-1.132,1.385-0.629c-1.132,0.251-2.139,0.754-3.146,1.007
				c-1.511,0.378-3.021,0.754-4.529,1.007c-5.284,1.132,2.894,0-1.51,0.251c-4.025,0.251-8.053,0.378-12.203,0.125
				c-1.761-0.125-3.649-0.378-5.41-0.503c5.284,0.503-1.51-0.378-2.768-0.629c-4.529-0.882-8.933-2.014-13.336-3.396
				c-4.403-1.384-8.807-2.894-13.21-4.529c-1.007-0.378-2.139-0.881-3.146-1.258c3.271,1.385-0.251-0.125-1.132-0.503
				c-2.769-1.258-5.41-2.517-8.053-3.774c-21.012-10.442-40.386-23.779-57.12-38.122c-10.317-8.807-20.005-18.116-29.315-27.93
				c-8.303-8.807-17.488-19.501-23.652-27.805c-6.92-9.436-13.463-19.123-19.249-29.315c-2.643-4.529-5.158-9.31-7.424-13.966
				c-1.006-2.139-2.139-4.278-3.02-6.542c0.125,0.251-2.265-5.032-1.132-2.517c0.881,2.139-0.881-2.139-1.007-2.517
				c-3.522-8.807-6.291-17.866-8.052-27.176c-0.251-1.635-1.007-6.417-0.503-2.013c-0.251-2.014-0.503-4.025-0.629-6.165
				c-0.251-4.025,0.125-8.052,0.125-12.078c0-1.761-0.754-1.887-0.251,1.384c-0.125-0.503,0.251-1.761,0.378-2.264
				c0.378-1.636,0.754-3.396,1.258-5.032c0.251-0.754,0.503-1.385,0.629-2.139c1.007-3.649-0.125,1.132-0.503,0.881
				c-0.251-0.125,2.264-4.529,2.517-4.781c0.378-0.629,0.881-1.132,1.132-1.761c1.132-2.139-0.881,0.251-1.007,1.258
				c0.251-1.007,2.139-2.517,2.894-3.146c0.881-0.881,1.635-1.635,2.517-2.517c9.059-9.059,18.117-18.117,27.05-27.051
				c0.503-0.503,3.021-2.39,3.146-3.146c0,0-1.761,0.754-2.517,1.132c1.258-0.503,3.021-0.125-0.251-0.125
				c-2.013-0.378-2.39-0.503-1.006-0.125c1.257,0.378,1.006,0.251-0.754-0.251c-0.125-0.629-1.51-1.385,0.503,0.754
				c1.761,1.886,3.774,3.774,5.535,5.536c4.907,4.906,9.939,9.938,14.846,14.845c3.396,3.397,6.92,8.304,10.82,10.82
				c0,0,0.629,0.754,0.754,0.754c-0.629,0.125-1.258-2.517-1.258-2.643c0.503,1.007,0.378,3.271,0.125-0.251
				c-0.125-1.257,1.258-3.146-0.125-0.25c-0.125,0.25,0.881-2.894,1.258-2.643c-0.125,0-0.881,0.881-1.007,1.007
				c-4.781,4.152-9.059,9.059-13.462,13.462c-3.271,3.271-6.793,6.417-9.813,9.939c-7.046,8.052-10.317,17.613-11.198,28.183
				c-1.886,20.508,7.424,42.021,17.866,59.131c14.217,23.526,33.593,43.531,55.609,59.888
				c28.812,21.388,75.237,42.649,105.305,12.455c4.781-4.781,9.688-9.688,14.47-14.469c1.636-1.636,3.396-3.146,4.906-4.907
				c0,0,1.007-0.881,1.007-1.007c0.126,0.504-2.517,1.258-2.643,1.258c2.518-1.132,0.378-0.629-1.132-0.251
				c-0.251,0-0.629-0.125-0.881-0.125c2.139,0.629,2.139,0.629,0,0c0-0.126-1.133-0.755-1.133-0.755s0.629,0.629,0.755,0.755
				c1.132,1.761,3.271,3.271,4.655,4.655c4.781,4.781,9.688,9.688,14.47,14.47c4.152,4.152,8.052,8.429,12.33,12.33
				c1.636,1.51,1.385,2.014,0.378-0.503c-0.882-2.14-0.126,3.774-0.126-1.007c0-1.258,1.258-3.021-0.125-0.251
				c0.378-0.882,1.51-2.39,1.007-2.39c-0.755,0-2.517,2.517-3.021,3.02c-2.265,2.265-4.528,4.529-6.668,6.668
				c-5.157,5.157-10.191,10.191-15.349,15.349C116.862,131.166,114.22,133.684,111.704,136.2c-7.171,7.171-7.171,19.501,0,26.673
				c7.171,7.171,19.502,7.171,26.673,0c8.303-8.304,16.606-16.607,24.911-24.912c3.021-3.02,6.292-6.039,9.185-9.31
				c11.827-13.588,11.071-33.215-1.132-46.3c-8.053-8.556-16.606-16.606-24.912-24.911c-2.893-2.894-5.66-5.913-8.681-8.682
				c-13.085-12.077-32.712-13.084-46.3-1.132c-8.429,7.424-16.229,15.853-24.03,23.904c-0.628,0.629-3.271,2.391-0.628,0.755
				c2.893-1.887-0.378,0.125-0.755,0.251c-2.517,1.007,1.636,0.125,1.51-0.504c0,0.126-5.284,1.762-5.409,1.511
				c-0.126-0.251,5.157-0.251,1.384-0.251c-1.257,0-2.517,0.125-3.774,0.125c-0.881,0-1.761,0-2.642-0.125
				c-0.378,0-4.656-0.629-1.636-0.126c3.271,0.504-1.511-0.378-1.761-0.378c-1.007-0.251-2.014-0.378-2.894-0.629
				c-2.517-0.629-5.032-1.385-7.549-2.264c-1.007-0.378-2.14-0.755-3.146-1.133c-5.157-1.887,3.146,1.636-1.886-0.754
				s-9.939-5.032-14.721-7.927c-5.157-3.146-11.323-7.424-14.594-9.939c-10.946-8.681-20.634-18.62-29.691-29.314
				c-2.39-2.768-6.165-8.178-9.185-12.707c-3.396-5.284-6.417-10.694-9.059-16.355c-0.503-1.007-1.007-2.139-1.385-3.146
				c1.385,3.271,0-0.125-0.251-1.007c-0.754-2.265-1.635-4.529-2.264-6.793c-0.629-2.139-1.007-4.403-1.51-6.542
				c-0.251-1.258-0.378-4.529,0,0.125c-0.125-1.385-0.251-2.643-0.251-4.025c0-1.887,0.251-3.775,0.125-5.661
				c-0.125-2.39-1.51,4.403,0,0.881c0.251-0.629,0.378-1.636,0.629-2.139c1.132-4.907-1.51,2.517,0.503-1.007
				c2.014-3.523-3.02,2.643,0.629-0.881c4.025-3.9,7.927-7.927,11.827-11.827c3.649-3.649,7.549-7.171,11.071-11.071
				c12.203-13.084,13.084-32.711,1.132-46.299c-7.8-8.932-16.859-16.984-25.288-25.415c-3.146-3.146-6.165-6.417-9.436-9.436
				c-11.574-10.82-29.063-13.335-42.525-4.152c-10.694,7.296-19.376,18.369-28.433,27.427c-9.688,9.688-18.495,18.746-23.527,31.83
				c-6.668,17.488-5.032,37.618-0.881,55.609c5.158,22.395,15.474,43.782,27.427,63.284c28.937,47.306,70.33,88.698,117.383,118.012
				c19.376,12.078,40.637,22.395,62.78,27.93c17.991,4.529,38.373,6.543,56.238,0.251c8.933-3.146,16.859-7.8,23.779-14.469
				c7.297-7.046,7.172-19.502,0-26.673C131.079,128.902,119.001,129.154,111.704,136.2z"/>
		</g>
	</g>
	<g>
		<g>
			<path fill="#2EAC4A" d="M-167.853,224.143c47.179,43.406,106.815,70.077,170.728,75.991
				c55.106,5.157,111.344-6.668,160.034-32.586c94.862-50.325,154.875-153.24,151.982-260.559
				c-2.643-106.436-66.43-206.332-163.054-251.876c-48.689-23.023-103.545-32.711-157.141-26.043
				c-54.477,6.667-104.927,27.93-147.705,62.277c-89.2,71.336-126.818,194.256-94.61,303.587
				c4.781,16.23,11.198,32.083,18.62,47.307c0-6.292,0-12.707,0-18.998c-16.23,31.201-32.459,62.277-48.689,93.479
				c-2.39,4.528-4.656,8.932-7.045,13.462c-7.549,14.595,4.907,31.83,21.262,27.68c33.215-8.429,66.555-16.859,99.77-25.288
				c4.656-1.132,9.436-2.39,14.091-3.522c9.939-2.517,15.852-13.588,13.21-23.275c-2.768-10.064-13.335-15.727-23.276-13.21
				c-33.215,8.429-66.555,16.859-99.77,25.288c-4.656,1.132-9.436,2.39-14.091,3.521c7.046,9.185,14.217,18.495,21.263,27.68
				c14.72-27.68,29.189-55.484,43.657-83.414c3.271-6.164,6.417-12.33,9.688-18.495c0.754-1.385,1.51-2.893,2.265-4.277
				c0.503-1.007,0.754-1.511,1.257-2.768c3.397-8.429-0.25-15.099-3.774-22.647c-14.595-31.327-22.269-67.939-22.269-103.292
				c0-7.296,0.251-14.72,0.881-22.017c0.251-3.522,0.629-6.92,1.007-10.442c0.125-0.881,0.251-1.761,0.378-2.642
				c0,0.251-0.378,3.02-0.125,0.754c0.251-2.014,0.629-4.025,0.881-5.914c2.39-14.217,6.039-28.308,10.694-42.021
				c1.132-3.146,2.265-6.292,3.397-9.436c0.628-1.51,1.257-3.146,1.886-4.656c0.754-2.014-0.125,0.378-0.251,0.629
				c0.378-1.007,0.881-2.014,1.385-3.021c2.768-6.291,5.914-12.581,9.185-18.745c6.542-12.204,14.091-23.779,22.395-34.725
				c1.258-1.761-0.251,0.251-0.378,0.503c0.502-0.627,1.005-1.256,1.509-1.887c1.007-1.257,2.013-2.517,3.146-3.9
				c2.265-2.768,4.656-5.41,7.046-8.178c4.529-5.158,9.31-10.064,14.342-14.846c5.157-4.907,10.567-9.688,16.104-14.217
				c1.258-1.007,2.517-2.013,3.9-3.146c1.636-1.385-0.378,0.251-0.503,0.378c0.629-0.503,1.258-1.007,2.014-1.51
				c2.893-2.139,5.788-4.278,8.681-6.292c11.449-7.8,23.401-14.72,35.857-20.759c3.021-1.385,6.039-2.768,9.06-4.152
				c3.271-1.51-1.761,0.629,1.635-0.629c1.761-0.754,3.649-1.385,5.41-2.139c6.542-2.517,13.21-4.781,20.005-6.667
				c6.793-2.014,13.713-3.649,20.633-5.158c3.649-0.754,7.297-1.385,10.946-2.014c1.761-0.251,3.396-0.503,5.158-0.754
				c-3.522,0.503,1.51-0.125,2.768-0.378c14.595-1.636,29.314-2.139,43.909-1.385c7.297,0.378,14.47,1.007,21.767,1.886
				c-3.271-0.377,0.628,0.125,1.761,0.251c1.761,0.251,3.396,0.503,5.032,0.881c3.648,0.629,7.296,1.385,10.945,2.139
				c13.714,3.02,27.302,7.171,40.386,12.33c0.755,0.251,4.781,1.887,3.146,1.258c-1.635-0.629,2.391,1.007,3.146,1.384
				c3.521,1.636,7.045,3.271,10.567,5.032c6.164,3.146,12.203,6.417,18.242,9.939c5.913,3.522,11.7,7.297,17.362,11.324
				c1.385,1.007,2.643,1.886,4.025,2.893c0.629,0.503,4.025,3.021,2.643,2.014c-1.385-1.007,2.014,1.635,2.643,2.139
				c1.51,1.258,3.02,2.39,4.403,3.649c10.442,8.807,20.381,18.495,29.314,28.811c2.139,2.517,4.278,5.032,6.417,7.549
				c1.007,1.257,2.014,2.517,3.146,3.9c-2.139-2.643,0.881,1.258,1.51,2.139c4.152,5.536,7.928,11.198,11.575,17.11
				c3.774,6.039,7.423,12.33,10.694,18.746c1.51,3.02,3.019,5.913,4.403,8.932c0.754,1.51,1.385,3.02,2.139,4.529
				c0.378,0.754,0.629,1.51,1.007,2.264c0.126,0.378,1.511,3.522,0.629,1.636c-0.629-1.636,1.007,2.517,1.258,3.146
				c0.629,1.51,1.258,3.146,1.761,4.656c1.258,3.396,2.518,6.92,3.649,10.317c2.139,6.668,4.152,13.462,5.788,20.381
				c1.636,6.92,3.02,13.966,4.152,21.012c0.125,1.132,0.754,5.158,0.251,1.761c0.251,1.761,0.378,3.396,0.629,5.158
				c0.378,3.774,0.754,7.549,1.007,11.323c1.006,14.971,0.754,29.943-0.629,44.915c-0.126,1.761-0.378,3.396-0.504,5.157
				c-0.125,1.258-0.754,5.158-0.251,1.887c-0.503,3.648-1.132,7.424-1.761,11.071c-1.258,7.045-2.894,13.966-4.781,20.759
				c-1.887,6.793-3.9,13.463-6.291,20.13c-1.133,3.146-2.391,6.292-3.522,9.436c-0.251,0.755-0.629,1.511-1.007,2.39
				c0.126-0.25,1.133-2.642,0.251-0.628c-0.754,1.761-1.51,3.521-2.39,5.284c-5.788,12.581-12.456,24.784-20.131,36.233
				c-1.761,2.768-3.648,5.535-5.66,8.178c-1.007,1.385-1.887,2.643-2.894,4.025c-0.503,0.629-1.007,1.258-1.51,2.014
				c-1.762,2.265,1.761-2.139-0.126,0.125c-4.403,5.661-9.059,11.071-13.966,16.356c-9.31,10.064-19.374,19.374-30.194,28.056
				c-0.629,0.503-1.258,1.007-1.887,1.51c0.251-0.125,2.265-1.761,0.504-0.378c-1.385,1.007-2.643,2.014-4.025,2.894
				c-2.894,2.139-5.788,4.152-8.808,6.164c-5.787,3.9-11.574,7.424-17.613,10.82c-6.038,3.396-12.203,6.542-18.494,9.436
				c-1.51,0.754-3.021,1.385-4.529,2.014c-1.007,0.503-4.655,1.886-1.635,0.754c-3.397,1.385-6.794,2.643-10.191,3.9
				c-13.588,4.906-27.553,8.807-41.644,11.448c-3.396,0.629-6.794,1.133-10.191,1.762c-3.649,0.629,1.887-0.126-1.887,0.251
				c-2.014,0.251-4.025,0.503-6.039,0.628c-7.297,0.755-14.595,1.133-21.891,1.258c-8.43,0.126-16.859,0-25.163-0.629
				c-4.153-0.25-8.304-0.754-12.331-1.132c-2.264-0.251-0.503,0-0.125,0c-1.007-0.126-2.013-0.251-3.02-0.503
				c-2.39-0.378-4.656-0.755-7.046-1.133c-34.094-6.039-62.026-16.859-90.836-34.976c-6.668-4.152-13.084-8.682-19.376-13.463
				c-1.761-1.257-0.378-0.378,0,0c-0.754-0.629-1.51-1.257-2.264-1.886c-1.51-1.258-3.021-2.518-4.529-3.775
				c-3.271-2.768-6.417-5.535-9.563-8.429c-7.549-6.92-19.249-7.423-26.673,0C-174.771,204.517-175.402,217.223-167.853,224.143z"/>
		</g>
	</g>
</g>
<g>
	<g>
		<path fill="#2EAC4A" d="M125.04,149.535c-31.83,31.831-112.729,2.518-180.667-65.422C-123.565,16.174-152.88-64.724-121.05-96.554
			l32.962-32.962c5.788-5.788,15.098-5.788,20.885,0l33.718,33.718c5.788,5.788,5.788,15.098,0,20.884l-22.898,22.898
			c-17.74,17.74-2.139,62.655,35.605,100.523c37.743,37.869,83.665,54.225,101.405,36.486l22.772-22.898
			c5.788-5.787,15.098-5.787,20.885,0l33.718,33.719c5.788,5.788,5.788,15.098,0,20.885L125.04,149.535z"/>
		<g>
			<path fill="#2EAC4A" d="M111.704,136.2c-0.754,0.629-4.781,3.9-2.139,2.014c2.768-1.887-1.887,1.132-2.517,1.51
				c-0.882,0.504-2.769,1.887-3.9,1.887c2.014,0,3.522-1.132,1.385-0.629c-1.132,0.251-2.139,0.754-3.146,1.007
				c-1.511,0.378-3.021,0.754-4.529,1.007c-5.284,1.132,2.894,0-1.51,0.251c-4.025,0.251-8.053,0.378-12.203,0.125
				c-1.761-0.125-3.649-0.378-5.41-0.503c5.284,0.503-1.51-0.378-2.768-0.629c-4.529-0.882-8.933-2.014-13.336-3.396
				c-4.403-1.384-8.807-2.894-13.21-4.529c-1.007-0.378-2.139-0.881-3.146-1.258c3.271,1.385-0.251-0.125-1.132-0.503
				c-2.769-1.258-5.41-2.517-8.053-3.774c-21.012-10.442-40.386-23.779-57.12-38.122c-10.317-8.807-20.005-18.116-29.315-27.93
				c-8.303-8.807-17.488-19.501-23.652-27.805c-6.92-9.436-13.463-19.123-19.249-29.315c-2.643-4.529-5.158-9.31-7.424-13.966
				c-1.006-2.139-2.139-4.278-3.02-6.542c0.125,0.251-2.265-5.032-1.132-2.517c0.881,2.139-0.881-2.139-1.007-2.517
				c-3.522-8.807-6.291-17.866-8.052-27.176c-0.251-1.635-1.007-6.417-0.503-2.013c-0.251-2.014-0.503-4.025-0.629-6.165
				c-0.251-4.025,0.125-8.052,0.125-12.078c0-1.761-0.754-1.887-0.251,1.384c-0.125-0.503,0.251-1.761,0.378-2.264
				c0.378-1.636,0.754-3.396,1.258-5.032c0.251-0.754,0.503-1.385,0.629-2.139c1.007-3.649-0.125,1.132-0.503,0.881
				c-0.251-0.125,2.264-4.529,2.517-4.781c0.378-0.629,0.881-1.132,1.132-1.761c1.132-2.139-0.881,0.251-1.007,1.258
				c0.251-1.007,2.139-2.517,2.894-3.146c0.881-0.881,1.635-1.635,2.517-2.517c9.059-9.059,18.117-18.117,27.05-27.051
				c0.503-0.503,3.021-2.39,3.146-3.146c0,0-1.761,0.754-2.517,1.132c1.258-0.503,3.021-0.125-0.251-0.125
				c-2.013-0.378-2.39-0.503-1.006-0.125c1.257,0.378,1.006,0.251-0.754-0.251c-0.125-0.629-1.51-1.385,0.503,0.754
				c1.761,1.886,3.774,3.774,5.535,5.536c4.907,4.906,9.939,9.938,14.846,14.845c3.396,3.397,6.92,8.304,10.82,10.82
				c0,0,0.629,0.754,0.754,0.754c-0.629,0.125-1.258-2.517-1.258-2.643c0.503,1.007,0.378,3.271,0.125-0.251
				c-0.125-1.257,1.258-3.146-0.125-0.25c-0.125,0.25,0.881-2.894,1.258-2.643c-0.125,0-0.881,0.881-1.007,1.007
				c-4.781,4.152-9.059,9.059-13.462,13.462c-3.271,3.271-6.793,6.417-9.813,9.939c-7.046,8.052-10.317,17.613-11.198,28.183
				c-1.886,20.508,7.424,42.021,17.866,59.131c14.217,23.526,33.593,43.531,55.609,59.888
				c28.812,21.388,75.237,42.649,105.305,12.455c4.781-4.781,9.688-9.688,14.47-14.469c1.636-1.636,3.396-3.146,4.906-4.907
				c0,0,1.007-0.881,1.007-1.007c0.126,0.504-2.517,1.258-2.643,1.258c2.518-1.132,0.378-0.629-1.132-0.251
				c-0.251,0-0.629-0.125-0.881-0.125c2.139,0.629,2.139,0.629,0,0c0-0.126-1.133-0.755-1.133-0.755s0.629,0.629,0.755,0.755
				c1.132,1.761,3.271,3.271,4.655,4.655c4.781,4.781,9.688,9.688,14.47,14.47c4.152,4.152,8.052,8.429,12.33,12.33
				c1.636,1.51,1.385,2.014,0.378-0.503c-0.882-2.14-0.126,3.774-0.126-1.007c0-1.258,1.258-3.021-0.125-0.251
				c0.378-0.882,1.51-2.39,1.007-2.39c-0.755,0-2.517,2.517-3.021,3.02c-2.265,2.265-4.528,4.529-6.668,6.668
				c-5.157,5.157-10.191,10.191-15.349,15.349C116.862,131.166,114.22,133.684,111.704,136.2c-7.171,7.171-7.171,19.501,0,26.673
				c7.171,7.171,19.502,7.171,26.673,0c8.303-8.304,16.606-16.607,24.911-24.912c3.021-3.02,6.292-6.039,9.185-9.31
				c11.827-13.588,11.071-33.215-1.132-46.3c-8.053-8.556-16.606-16.606-24.912-24.911c-2.893-2.894-5.66-5.913-8.681-8.682
				c-13.085-12.077-32.712-13.084-46.3-1.132c-8.429,7.424-16.229,15.853-24.03,23.904c-0.628,0.629-3.271,2.391-0.628,0.755
				c2.893-1.887-0.378,0.125-0.755,0.251c-2.517,1.007,1.636,0.125,1.51-0.504c0,0.126-5.284,1.762-5.409,1.511
				c-0.126-0.251,5.157-0.251,1.384-0.251c-1.257,0-2.517,0.125-3.774,0.125c-0.881,0-1.761,0-2.642-0.125
				c-0.378,0-4.656-0.629-1.636-0.126c3.271,0.504-1.511-0.378-1.761-0.378c-1.007-0.251-2.014-0.378-2.894-0.629
				c-2.517-0.629-5.032-1.385-7.549-2.264c-1.007-0.378-2.14-0.755-3.146-1.133c-5.157-1.887,3.146,1.636-1.886-0.754
				s-9.939-5.032-14.721-7.927c-5.157-3.146-11.323-7.424-14.594-9.939c-10.946-8.681-20.634-18.62-29.691-29.314
				c-2.39-2.768-6.165-8.178-9.185-12.707c-3.396-5.284-6.417-10.694-9.059-16.355c-0.503-1.007-1.007-2.139-1.385-3.146
				c1.385,3.271,0-0.125-0.251-1.007c-0.754-2.265-1.635-4.529-2.264-6.793c-0.629-2.139-1.007-4.403-1.51-6.542
				c-0.251-1.258-0.378-4.529,0,0.125c-0.125-1.385-0.251-2.643-0.251-4.025c0-1.887,0.251-3.775,0.125-5.661
				c-0.125-2.39-1.51,4.403,0,0.881c0.251-0.629,0.378-1.636,0.629-2.139c1.132-4.907-1.51,2.517,0.503-1.007
				c2.014-3.523-3.02,2.643,0.629-0.881c4.025-3.9,7.927-7.927,11.827-11.827c3.649-3.649,7.549-7.171,11.071-11.071
				c12.203-13.084,13.084-32.711,1.132-46.299c-7.8-8.932-16.859-16.984-25.288-25.415c-3.146-3.146-6.165-6.417-9.436-9.436
				c-11.574-10.82-29.063-13.335-42.525-4.152c-10.694,7.296-19.376,18.369-28.433,27.427c-9.688,9.688-18.495,18.746-23.527,31.83
				c-6.668,17.488-5.032,37.618-0.881,55.609c5.158,22.395,15.474,43.782,27.427,63.284c28.937,47.306,70.33,88.698,117.383,118.012
				c19.376,12.078,40.637,22.395,62.78,27.93c17.991,4.529,38.373,6.543,56.238,0.251c8.933-3.146,16.859-7.8,23.779-14.469
				c7.297-7.046,7.172-19.502,0-26.673C131.079,128.902,119.001,129.154,111.704,136.2z"/>
		</g>
	</g>
	<g>
		<g>
			<path fill="#2EAC4A" d="M-167.853,224.143c47.179,43.406,106.815,70.077,170.728,75.991
				c55.106,5.157,111.344-6.668,160.034-32.586c94.862-50.325,154.875-153.24,151.982-260.559
				c-2.643-106.436-66.43-206.332-163.054-251.876c-48.689-23.023-103.545-32.711-157.141-26.043
				c-54.477,6.667-104.927,27.93-147.705,62.277c-89.2,71.336-126.818,194.256-94.61,303.587
				c4.781,16.23,11.198,32.083,18.62,47.307c0-6.292,0-12.707,0-18.998c-16.23,31.201-32.459,62.277-48.689,93.479
				c-2.39,4.528-4.656,8.932-7.045,13.462c-7.549,14.595,4.907,31.83,21.262,27.68c33.215-8.429,66.555-16.859,99.77-25.288
				c4.656-1.132,9.436-2.39,14.091-3.522c9.939-2.517,15.852-13.588,13.21-23.275c-2.768-10.064-13.335-15.727-23.276-13.21
				c-33.215,8.429-66.555,16.859-99.77,25.288c-4.656,1.132-9.436,2.39-14.091,3.521c7.046,9.185,14.217,18.495,21.263,27.68
				c14.72-27.68,29.189-55.484,43.657-83.414c3.271-6.164,6.417-12.33,9.688-18.495c0.754-1.385,1.51-2.893,2.265-4.277
				c0.503-1.007,0.754-1.511,1.257-2.768c3.397-8.429-0.25-15.099-3.774-22.647c-14.595-31.327-22.269-67.939-22.269-103.292
				c0-7.296,0.251-14.72,0.881-22.017c0.251-3.522,0.629-6.92,1.007-10.442c0.125-0.881,0.251-1.761,0.378-2.642
				c0,0.251-0.378,3.02-0.125,0.754c0.251-2.014,0.629-4.025,0.881-5.914c2.39-14.217,6.039-28.308,10.694-42.021
				c1.132-3.146,2.265-6.292,3.397-9.436c0.628-1.51,1.257-3.146,1.886-4.656c0.754-2.014-0.125,0.378-0.251,0.629
				c0.378-1.007,0.881-2.014,1.385-3.021c2.768-6.291,5.914-12.581,9.185-18.745c6.542-12.204,14.091-23.779,22.395-34.725
				c1.258-1.761-0.251,0.251-0.378,0.503c0.502-0.627,1.005-1.256,1.509-1.887c1.007-1.257,2.013-2.517,3.146-3.9
				c2.265-2.768,4.656-5.41,7.046-8.178c4.529-5.158,9.31-10.064,14.342-14.846c5.157-4.907,10.567-9.688,16.104-14.217
				c1.258-1.007,2.517-2.013,3.9-3.146c1.636-1.385-0.378,0.251-0.503,0.378c0.629-0.503,1.258-1.007,2.014-1.51
				c2.893-2.139,5.788-4.278,8.681-6.292c11.449-7.8,23.401-14.72,35.857-20.759c3.021-1.385,6.039-2.768,9.06-4.152
				c3.271-1.51-1.761,0.629,1.635-0.629c1.761-0.754,3.649-1.385,5.41-2.139c6.542-2.517,13.21-4.781,20.005-6.667
				c6.793-2.014,13.713-3.649,20.633-5.158c3.649-0.754,7.297-1.385,10.946-2.014c1.761-0.251,3.396-0.503,5.158-0.754
				c-3.522,0.503,1.51-0.125,2.768-0.378c14.595-1.636,29.314-2.139,43.909-1.385c7.297,0.378,14.47,1.007,21.767,1.886
				c-3.271-0.377,0.628,0.125,1.761,0.251c1.761,0.251,3.396,0.503,5.032,0.881c3.648,0.629,7.296,1.385,10.945,2.139
				c13.714,3.02,27.302,7.171,40.386,12.33c0.755,0.251,4.781,1.887,3.146,1.258c-1.635-0.629,2.391,1.007,3.146,1.384
				c3.521,1.636,7.045,3.271,10.567,5.032c6.164,3.146,12.203,6.417,18.242,9.939c5.913,3.522,11.7,7.297,17.362,11.324
				c1.385,1.007,2.643,1.886,4.025,2.893c0.629,0.503,4.025,3.021,2.643,2.014c-1.385-1.007,2.014,1.635,2.643,2.139
				c1.51,1.258,3.02,2.39,4.403,3.649c10.442,8.807,20.381,18.495,29.314,28.811c2.139,2.517,4.278,5.032,6.417,7.549
				c1.007,1.257,2.014,2.517,3.146,3.9c-2.139-2.643,0.881,1.258,1.51,2.139c4.152,5.536,7.928,11.198,11.575,17.11
				c3.774,6.039,7.423,12.33,10.694,18.746c1.51,3.02,3.019,5.913,4.403,8.932c0.754,1.51,1.385,3.02,2.139,4.529
				c0.378,0.754,0.629,1.51,1.007,2.264c0.126,0.378,1.511,3.522,0.629,1.636c-0.629-1.636,1.007,2.517,1.258,3.146
				c0.629,1.51,1.258,3.146,1.761,4.656c1.258,3.396,2.518,6.92,3.649,10.317c2.139,6.668,4.152,13.462,5.788,20.381
				c1.636,6.92,3.02,13.966,4.152,21.012c0.125,1.132,0.754,5.158,0.251,1.761c0.251,1.761,0.378,3.396,0.629,5.158
				c0.378,3.774,0.754,7.549,1.007,11.323c1.006,14.971,0.754,29.943-0.629,44.915c-0.126,1.761-0.378,3.396-0.504,5.157
				c-0.125,1.258-0.754,5.158-0.251,1.887c-0.503,3.648-1.132,7.424-1.761,11.071c-1.258,7.045-2.894,13.966-4.781,20.759
				c-1.887,6.793-3.9,13.463-6.291,20.13c-1.133,3.146-2.391,6.292-3.522,9.436c-0.251,0.755-0.629,1.511-1.007,2.39
				c0.126-0.25,1.133-2.642,0.251-0.628c-0.754,1.761-1.51,3.521-2.39,5.284c-5.788,12.581-12.456,24.784-20.131,36.233
				c-1.761,2.768-3.648,5.535-5.66,8.178c-1.007,1.385-1.887,2.643-2.894,4.025c-0.503,0.629-1.007,1.258-1.51,2.014
				c-1.762,2.265,1.761-2.139-0.126,0.125c-4.403,5.661-9.059,11.071-13.966,16.356c-9.31,10.064-19.374,19.374-30.194,28.056
				c-0.629,0.503-1.258,1.007-1.887,1.51c0.251-0.125,2.265-1.761,0.504-0.378c-1.385,1.007-2.643,2.014-4.025,2.894
				c-2.894,2.139-5.788,4.152-8.808,6.164c-5.787,3.9-11.574,7.424-17.613,10.82c-6.038,3.396-12.203,6.542-18.494,9.436
				c-1.51,0.754-3.021,1.385-4.529,2.014c-1.007,0.503-4.655,1.886-1.635,0.754c-3.397,1.385-6.794,2.643-10.191,3.9
				c-13.588,4.906-27.553,8.807-41.644,11.448c-3.396,0.629-6.794,1.133-10.191,1.762c-3.649,0.629,1.887-0.126-1.887,0.251
				c-2.014,0.251-4.025,0.503-6.039,0.628c-7.297,0.755-14.595,1.133-21.891,1.258c-8.43,0.126-16.859,0-25.163-0.629
				c-4.153-0.25-8.304-0.754-12.331-1.132c-2.264-0.251-0.503,0-0.125,0c-1.007-0.126-2.013-0.251-3.02-0.503
				c-2.39-0.378-4.656-0.755-7.046-1.133c-34.094-6.039-62.026-16.859-90.836-34.976c-6.668-4.152-13.084-8.682-19.376-13.463
				c-1.761-1.257-0.378-0.378,0,0c-0.754-0.629-1.51-1.257-2.264-1.886c-1.51-1.258-3.021-2.518-4.529-3.775
				c-3.271-2.768-6.417-5.535-9.563-8.429c-7.549-6.92-19.249-7.423-26.673,0C-174.771,204.517-175.402,217.223-167.853,224.143z"/>
		</g>
	</g>
</g>
<g>
	<g>
		<path fill="#2EAC4A" d="M125.04,149.535c-31.83,31.831-112.729,2.518-180.667-65.422C-123.565,16.174-152.88-64.724-121.05-96.554
			l32.962-32.962c5.788-5.788,15.098-5.788,20.885,0l33.718,33.718c5.788,5.788,5.788,15.098,0,20.884l-22.898,22.898
			c-17.74,17.74-2.139,62.655,35.605,100.523c37.743,37.869,83.665,54.225,101.405,36.486l22.772-22.898
			c5.788-5.787,15.098-5.787,20.885,0l33.718,33.719c5.788,5.788,5.788,15.098,0,20.885L125.04,149.535z"/>
		<g>
			<path fill="#2EAC4A" d="M111.704,136.2c-0.754,0.629-4.781,3.9-2.139,2.014c2.768-1.887-1.887,1.132-2.517,1.51
				c-0.882,0.504-2.769,1.887-3.9,1.887c2.014,0,3.522-1.132,1.385-0.629c-1.132,0.251-2.139,0.754-3.146,1.007
				c-1.511,0.378-3.021,0.754-4.529,1.007c-5.284,1.132,2.894,0-1.51,0.251c-4.025,0.251-8.053,0.378-12.203,0.125
				c-1.761-0.125-3.649-0.378-5.41-0.503c5.284,0.503-1.51-0.378-2.768-0.629c-4.529-0.882-8.933-2.014-13.336-3.396
				c-4.403-1.384-8.807-2.894-13.21-4.529c-1.007-0.378-2.139-0.881-3.146-1.258c3.271,1.385-0.251-0.125-1.132-0.503
				c-2.769-1.258-5.41-2.517-8.053-3.774c-21.012-10.442-40.386-23.779-57.12-38.122c-10.317-8.807-20.005-18.116-29.315-27.93
				c-8.303-8.807-17.488-19.501-23.652-27.805c-6.92-9.436-13.463-19.123-19.249-29.315c-2.643-4.529-5.158-9.31-7.424-13.966
				c-1.006-2.139-2.139-4.278-3.02-6.542c0.125,0.251-2.265-5.032-1.132-2.517c0.881,2.139-0.881-2.139-1.007-2.517
				c-3.522-8.807-6.291-17.866-8.052-27.176c-0.251-1.635-1.007-6.417-0.503-2.013c-0.251-2.014-0.503-4.025-0.629-6.165
				c-0.251-4.025,0.125-8.052,0.125-12.078c0-1.761-0.754-1.887-0.251,1.384c-0.125-0.503,0.251-1.761,0.378-2.264
				c0.378-1.636,0.754-3.396,1.258-5.032c0.251-0.754,0.503-1.385,0.629-2.139c1.007-3.649-0.125,1.132-0.503,0.881
				c-0.251-0.125,2.264-4.529,2.517-4.781c0.378-0.629,0.881-1.132,1.132-1.761c1.132-2.139-0.881,0.251-1.007,1.258
				c0.251-1.007,2.139-2.517,2.894-3.146c0.881-0.881,1.635-1.635,2.517-2.517c9.059-9.059,18.117-18.117,27.05-27.051
				c0.503-0.503,3.021-2.39,3.146-3.146c0,0-1.761,0.754-2.517,1.132c1.258-0.503,3.021-0.125-0.251-0.125
				c-2.013-0.378-2.39-0.503-1.006-0.125c1.257,0.378,1.006,0.251-0.754-0.251c-0.125-0.629-1.51-1.385,0.503,0.754
				c1.761,1.886,3.774,3.774,5.535,5.536c4.907,4.906,9.939,9.938,14.846,14.845c3.396,3.397,6.92,8.304,10.82,10.82
				c0,0,0.629,0.754,0.754,0.754c-0.629,0.125-1.258-2.517-1.258-2.643c0.503,1.007,0.378,3.271,0.125-0.251
				c-0.125-1.257,1.258-3.146-0.125-0.25c-0.125,0.25,0.881-2.894,1.258-2.643c-0.125,0-0.881,0.881-1.007,1.007
				c-4.781,4.152-9.059,9.059-13.462,13.462c-3.271,3.271-6.793,6.417-9.813,9.939c-7.046,8.052-10.317,17.613-11.198,28.183
				c-1.886,20.508,7.424,42.021,17.866,59.131c14.217,23.526,33.593,43.531,55.609,59.888
				c28.812,21.388,75.237,42.649,105.305,12.455c4.781-4.781,9.688-9.688,14.47-14.469c1.636-1.636,3.396-3.146,4.906-4.907
				c0,0,1.007-0.881,1.007-1.007c0.126,0.504-2.517,1.258-2.643,1.258c2.518-1.132,0.378-0.629-1.132-0.251
				c-0.251,0-0.629-0.125-0.881-0.125c2.139,0.629,2.139,0.629,0,0c0-0.126-1.133-0.755-1.133-0.755s0.629,0.629,0.755,0.755
				c1.132,1.761,3.271,3.271,4.655,4.655c4.781,4.781,9.688,9.688,14.47,14.47c4.152,4.152,8.052,8.429,12.33,12.33
				c1.636,1.51,1.385,2.014,0.378-0.503c-0.882-2.14-0.126,3.774-0.126-1.007c0-1.258,1.258-3.021-0.125-0.251
				c0.378-0.882,1.51-2.39,1.007-2.39c-0.755,0-2.517,2.517-3.021,3.02c-2.265,2.265-4.528,4.529-6.668,6.668
				c-5.157,5.157-10.191,10.191-15.349,15.349C116.862,131.166,114.22,133.684,111.704,136.2c-7.171,7.171-7.171,19.501,0,26.673
				c7.171,7.171,19.502,7.171,26.673,0c8.303-8.304,16.606-16.607,24.911-24.912c3.021-3.02,6.292-6.039,9.185-9.31
				c11.827-13.588,11.071-33.215-1.132-46.3c-8.053-8.556-16.606-16.606-24.912-24.911c-2.893-2.894-5.66-5.913-8.681-8.682
				c-13.085-12.077-32.712-13.084-46.3-1.132c-8.429,7.424-16.229,15.853-24.03,23.904c-0.628,0.629-3.271,2.391-0.628,0.755
				c2.893-1.887-0.378,0.125-0.755,0.251c-2.517,1.007,1.636,0.125,1.51-0.504c0,0.126-5.284,1.762-5.409,1.511
				c-0.126-0.251,5.157-0.251,1.384-0.251c-1.257,0-2.517,0.125-3.774,0.125c-0.881,0-1.761,0-2.642-0.125
				c-0.378,0-4.656-0.629-1.636-0.126c3.271,0.504-1.511-0.378-1.761-0.378c-1.007-0.251-2.014-0.378-2.894-0.629
				c-2.517-0.629-5.032-1.385-7.549-2.264c-1.007-0.378-2.14-0.755-3.146-1.133c-5.157-1.887,3.146,1.636-1.886-0.754
				s-9.939-5.032-14.721-7.927c-5.157-3.146-11.323-7.424-14.594-9.939c-10.946-8.681-20.634-18.62-29.691-29.314
				c-2.39-2.768-6.165-8.178-9.185-12.707c-3.396-5.284-6.417-10.694-9.059-16.355c-0.503-1.007-1.007-2.139-1.385-3.146
				c1.385,3.271,0-0.125-0.251-1.007c-0.754-2.265-1.635-4.529-2.264-6.793c-0.629-2.139-1.007-4.403-1.51-6.542
				c-0.251-1.258-0.378-4.529,0,0.125c-0.125-1.385-0.251-2.643-0.251-4.025c0-1.887,0.251-3.775,0.125-5.661
				c-0.125-2.39-1.51,4.403,0,0.881c0.251-0.629,0.378-1.636,0.629-2.139c1.132-4.907-1.51,2.517,0.503-1.007
				c2.014-3.523-3.02,2.643,0.629-0.881c4.025-3.9,7.927-7.927,11.827-11.827c3.649-3.649,7.549-7.171,11.071-11.071
				c12.203-13.084,13.084-32.711,1.132-46.299c-7.8-8.932-16.859-16.984-25.288-25.415c-3.146-3.146-6.165-6.417-9.436-9.436
				c-11.574-10.82-29.063-13.335-42.525-4.152c-10.694,7.296-19.376,18.369-28.433,27.427c-9.688,9.688-18.495,18.746-23.527,31.83
				c-6.668,17.488-5.032,37.618-0.881,55.609c5.158,22.395,15.474,43.782,27.427,63.284c28.937,47.306,70.33,88.698,117.383,118.012
				c19.376,12.078,40.637,22.395,62.78,27.93c17.991,4.529,38.373,6.543,56.238,0.251c8.933-3.146,16.859-7.8,23.779-14.469
				c7.297-7.046,7.172-19.502,0-26.673C131.079,128.902,119.001,129.154,111.704,136.2z"/>
		</g>
	</g>
	<g>
		<g>
			<path fill="#2EAC4A" d="M-167.853,224.143c47.179,43.406,106.815,70.077,170.728,75.991
				c55.106,5.157,111.344-6.668,160.034-32.586c94.862-50.325,154.875-153.24,151.982-260.559
				c-2.643-106.436-66.43-206.332-163.054-251.876c-48.689-23.023-103.545-32.711-157.141-26.043
				c-54.477,6.667-104.927,27.93-147.705,62.277c-89.2,71.336-126.818,194.256-94.61,303.587
				c4.781,16.23,11.198,32.083,18.62,47.307c0-6.292,0-12.707,0-18.998c-16.23,31.201-32.459,62.277-48.689,93.479
				c-2.39,4.528-4.656,8.932-7.045,13.462c-7.549,14.595,4.907,31.83,21.262,27.68c33.215-8.429,66.555-16.859,99.77-25.288
				c4.656-1.132,9.436-2.39,14.091-3.522c9.939-2.517,15.852-13.588,13.21-23.275c-2.768-10.064-13.335-15.727-23.276-13.21
				c-33.215,8.429-66.555,16.859-99.77,25.288c-4.656,1.132-9.436,2.39-14.091,3.521c7.046,9.185,14.217,18.495,21.263,27.68
				c14.72-27.68,29.189-55.484,43.657-83.414c3.271-6.164,6.417-12.33,9.688-18.495c0.754-1.385,1.51-2.893,2.265-4.277
				c0.503-1.007,0.754-1.511,1.257-2.768c3.397-8.429-0.25-15.099-3.774-22.647c-14.595-31.327-22.269-67.939-22.269-103.292
				c0-7.296,0.251-14.72,0.881-22.017c0.251-3.522,0.629-6.92,1.007-10.442c0.125-0.881,0.251-1.761,0.378-2.642
				c0,0.251-0.378,3.02-0.125,0.754c0.251-2.014,0.629-4.025,0.881-5.914c2.39-14.217,6.039-28.308,10.694-42.021
				c1.132-3.146,2.265-6.292,3.397-9.436c0.628-1.51,1.257-3.146,1.886-4.656c0.754-2.014-0.125,0.378-0.251,0.629
				c0.378-1.007,0.881-2.014,1.385-3.021c2.768-6.291,5.914-12.581,9.185-18.745c6.542-12.204,14.091-23.779,22.395-34.725
				c1.258-1.761-0.251,0.251-0.378,0.503c0.502-0.627,1.005-1.256,1.509-1.887c1.007-1.257,2.013-2.517,3.146-3.9
				c2.265-2.768,4.656-5.41,7.046-8.178c4.529-5.158,9.31-10.064,14.342-14.846c5.157-4.907,10.567-9.688,16.104-14.217
				c1.258-1.007,2.517-2.013,3.9-3.146c1.636-1.385-0.378,0.251-0.503,0.378c0.629-0.503,1.258-1.007,2.014-1.51
				c2.893-2.139,5.788-4.278,8.681-6.292c11.449-7.8,23.401-14.72,35.857-20.759c3.021-1.385,6.039-2.768,9.06-4.152
				c3.271-1.51-1.761,0.629,1.635-0.629c1.761-0.754,3.649-1.385,5.41-2.139c6.542-2.517,13.21-4.781,20.005-6.667
				c6.793-2.014,13.713-3.649,20.633-5.158c3.649-0.754,7.297-1.385,10.946-2.014c1.761-0.251,3.396-0.503,5.158-0.754
				c-3.522,0.503,1.51-0.125,2.768-0.378c14.595-1.636,29.314-2.139,43.909-1.385c7.297,0.378,14.47,1.007,21.767,1.886
				c-3.271-0.377,0.628,0.125,1.761,0.251c1.761,0.251,3.396,0.503,5.032,0.881c3.648,0.629,7.296,1.385,10.945,2.139
				c13.714,3.02,27.302,7.171,40.386,12.33c0.755,0.251,4.781,1.887,3.146,1.258c-1.635-0.629,2.391,1.007,3.146,1.384
				c3.521,1.636,7.045,3.271,10.567,5.032c6.164,3.146,12.203,6.417,18.242,9.939c5.913,3.522,11.7,7.297,17.362,11.324
				c1.385,1.007,2.643,1.886,4.025,2.893c0.629,0.503,4.025,3.021,2.643,2.014c-1.385-1.007,2.014,1.635,2.643,2.139
				c1.51,1.258,3.02,2.39,4.403,3.649c10.442,8.807,20.381,18.495,29.314,28.811c2.139,2.517,4.278,5.032,6.417,7.549
				c1.007,1.257,2.014,2.517,3.146,3.9c-2.139-2.643,0.881,1.258,1.51,2.139c4.152,5.536,7.928,11.198,11.575,17.11
				c3.774,6.039,7.423,12.33,10.694,18.746c1.51,3.02,3.019,5.913,4.403,8.932c0.754,1.51,1.385,3.02,2.139,4.529
				c0.378,0.754,0.629,1.51,1.007,2.264c0.126,0.378,1.511,3.522,0.629,1.636c-0.629-1.636,1.007,2.517,1.258,3.146
				c0.629,1.51,1.258,3.146,1.761,4.656c1.258,3.396,2.518,6.92,3.649,10.317c2.139,6.668,4.152,13.462,5.788,20.381
				c1.636,6.92,3.02,13.966,4.152,21.012c0.125,1.132,0.754,5.158,0.251,1.761c0.251,1.761,0.378,3.396,0.629,5.158
				c0.378,3.774,0.754,7.549,1.007,11.323c1.006,14.971,0.754,29.943-0.629,44.915c-0.126,1.761-0.378,3.396-0.504,5.157
				c-0.125,1.258-0.754,5.158-0.251,1.887c-0.503,3.648-1.132,7.424-1.761,11.071c-1.258,7.045-2.894,13.966-4.781,20.759
				c-1.887,6.793-3.9,13.463-6.291,20.13c-1.133,3.146-2.391,6.292-3.522,9.436c-0.251,0.755-0.629,1.511-1.007,2.39
				c0.126-0.25,1.133-2.642,0.251-0.628c-0.754,1.761-1.51,3.521-2.39,5.284c-5.788,12.581-12.456,24.784-20.131,36.233
				c-1.761,2.768-3.648,5.535-5.66,8.178c-1.007,1.385-1.887,2.643-2.894,4.025c-0.503,0.629-1.007,1.258-1.51,2.014
				c-1.762,2.265,1.761-2.139-0.126,0.125c-4.403,5.661-9.059,11.071-13.966,16.356c-9.31,10.064-19.374,19.374-30.194,28.056
				c-0.629,0.503-1.258,1.007-1.887,1.51c0.251-0.125,2.265-1.761,0.504-0.378c-1.385,1.007-2.643,2.014-4.025,2.894
				c-2.894,2.139-5.788,4.152-8.808,6.164c-5.787,3.9-11.574,7.424-17.613,10.82c-6.038,3.396-12.203,6.542-18.494,9.436
				c-1.51,0.754-3.021,1.385-4.529,2.014c-1.007,0.503-4.655,1.886-1.635,0.754c-3.397,1.385-6.794,2.643-10.191,3.9
				c-13.588,4.906-27.553,8.807-41.644,11.448c-3.396,0.629-6.794,1.133-10.191,1.762c-3.649,0.629,1.887-0.126-1.887,0.251
				c-2.014,0.251-4.025,0.503-6.039,0.628c-7.297,0.755-14.595,1.133-21.891,1.258c-8.43,0.126-16.859,0-25.163-0.629
				c-4.153-0.25-8.304-0.754-12.331-1.132c-2.264-0.251-0.503,0-0.125,0c-1.007-0.126-2.013-0.251-3.02-0.503
				c-2.39-0.378-4.656-0.755-7.046-1.133c-34.094-6.039-62.026-16.859-90.836-34.976c-6.668-4.152-13.084-8.682-19.376-13.463
				c-1.761-1.257-0.378-0.378,0,0c-0.754-0.629-1.51-1.257-2.264-1.886c-1.51-1.258-3.021-2.518-4.529-3.775
				c-3.271-2.768-6.417-5.535-9.563-8.429c-7.549-6.92-19.249-7.423-26.673,0C-174.771,204.517-175.402,217.223-167.853,224.143z"/>
		</g>
	</g>
</g>
<g>
	<g>
		<path fill="#2EAC4A" d="M125.04,148.535c-31.83,31.831-112.729,2.518-180.667-65.422C-123.565,15.174-152.88-65.724-121.05-97.554
			l32.962-32.962c5.788-5.788,15.098-5.788,20.885,0l33.718,33.718c5.788,5.788,5.788,15.098,0,20.884l-22.898,22.898
			c-17.74,17.74-2.139,62.655,35.605,100.523c37.743,37.869,83.665,54.225,101.405,36.486l22.772-22.898
			c5.788-5.787,15.098-5.787,20.885,0l33.718,33.719c5.788,5.788,5.788,15.098,0,20.885L125.04,148.535z"/>
		<g>
			<path fill="#2EAC4A" d="M111.704,135.2c-0.754,0.629-4.781,3.9-2.139,2.014c2.768-1.887-1.887,1.132-2.517,1.51
				c-0.882,0.504-2.769,1.887-3.9,1.887c2.014,0,3.522-1.132,1.385-0.629c-1.132,0.251-2.139,0.754-3.146,1.007
				c-1.511,0.378-3.021,0.754-4.529,1.007c-5.284,1.132,2.894,0-1.51,0.251c-4.025,0.251-8.053,0.378-12.203,0.125
				c-1.761-0.125-3.649-0.378-5.41-0.503c5.284,0.503-1.51-0.378-2.768-0.629c-4.529-0.882-8.933-2.014-13.336-3.396
				c-4.403-1.384-8.807-2.894-13.21-4.529c-1.007-0.378-2.139-0.881-3.146-1.258c3.271,1.385-0.251-0.125-1.132-0.503
				c-2.769-1.258-5.41-2.517-8.053-3.774c-21.012-10.442-40.386-23.779-57.12-38.122c-10.317-8.807-20.005-18.116-29.315-27.93
				c-8.303-8.807-17.488-19.501-23.652-27.805c-6.92-9.436-13.463-19.123-19.249-29.315c-2.643-4.529-5.158-9.31-7.424-13.966
				c-1.006-2.139-2.139-4.278-3.02-6.542c0.125,0.251-2.265-5.032-1.132-2.517c0.881,2.139-0.881-2.139-1.007-2.517
				c-3.522-8.807-6.291-17.866-8.052-27.176c-0.251-1.635-1.007-6.417-0.503-2.013c-0.251-2.014-0.503-4.025-0.629-6.165
				c-0.251-4.025,0.125-8.052,0.125-12.078c0-1.761-0.754-1.887-0.251,1.384c-0.125-0.503,0.251-1.761,0.378-2.264
				c0.378-1.636,0.754-3.396,1.258-5.032c0.251-0.754,0.503-1.385,0.629-2.139c1.007-3.649-0.125,1.132-0.503,0.881
				c-0.251-0.125,2.264-4.529,2.517-4.781c0.378-0.629,0.881-1.132,1.132-1.761c1.132-2.139-0.881,0.251-1.007,1.258
				c0.251-1.007,2.139-2.517,2.894-3.146c0.881-0.881,1.635-1.635,2.517-2.517c9.059-9.059,18.117-18.117,27.05-27.051
				c0.503-0.503,3.021-2.39,3.146-3.146c0,0-1.761,0.754-2.517,1.132c1.258-0.503,3.021-0.125-0.251-0.125
				c-2.013-0.378-2.39-0.503-1.006-0.125c1.257,0.378,1.006,0.251-0.754-0.251c-0.125-0.629-1.51-1.385,0.503,0.754
				c1.761,1.886,3.774,3.774,5.535,5.536c4.907,4.906,9.939,9.938,14.846,14.845c3.396,3.397,6.92,8.304,10.82,10.82
				c0,0,0.629,0.754,0.754,0.754c-0.629,0.125-1.258-2.517-1.258-2.643c0.503,1.007,0.378,3.271,0.125-0.251
				c-0.125-1.257,1.258-3.146-0.125-0.25c-0.125,0.25,0.881-2.894,1.258-2.643c-0.125,0-0.881,0.881-1.007,1.007
				c-4.781,4.152-9.059,9.059-13.462,13.462c-3.271,3.271-6.793,6.417-9.813,9.939c-7.046,8.052-10.317,17.613-11.198,28.183
				c-1.886,20.508,7.424,42.021,17.866,59.131c14.217,23.526,33.593,43.531,55.609,59.888
				c28.812,21.388,75.237,42.649,105.305,12.455c4.781-4.781,9.688-9.688,14.47-14.469c1.636-1.636,3.396-3.146,4.906-4.907
				c0,0,1.007-0.881,1.007-1.007c0.126,0.504-2.517,1.258-2.643,1.258c2.518-1.132,0.378-0.629-1.132-0.251
				c-0.251,0-0.629-0.125-0.881-0.125c2.139,0.629,2.139,0.629,0,0c0-0.126-1.133-0.755-1.133-0.755s0.629,0.629,0.755,0.755
				c1.132,1.761,3.271,3.271,4.655,4.655c4.781,4.781,9.688,9.688,14.47,14.47c4.152,4.152,8.052,8.429,12.33,12.33
				c1.636,1.51,1.385,2.014,0.378-0.503c-0.882-2.14-0.126,3.774-0.126-1.007c0-1.258,1.258-3.021-0.125-0.251
				c0.378-0.882,1.51-2.39,1.007-2.39c-0.755,0-2.517,2.517-3.021,3.02c-2.265,2.265-4.528,4.529-6.668,6.668
				c-5.157,5.157-10.191,10.191-15.349,15.349C116.862,130.166,114.22,132.684,111.704,135.2c-7.171,7.171-7.171,19.501,0,26.673
				c7.171,7.171,19.502,7.171,26.673,0c8.303-8.304,16.606-16.607,24.911-24.912c3.021-3.02,6.292-6.039,9.185-9.31
				c11.827-13.588,11.071-33.215-1.132-46.3c-8.053-8.556-16.606-16.606-24.912-24.911c-2.893-2.894-5.66-5.913-8.681-8.682
				c-13.085-12.077-32.712-13.084-46.3-1.132c-8.429,7.424-16.229,15.853-24.03,23.904c-0.628,0.629-3.271,2.391-0.628,0.755
				c2.893-1.887-0.378,0.125-0.755,0.251c-2.517,1.007,1.636,0.125,1.51-0.504c0,0.126-5.284,1.762-5.409,1.511
				c-0.126-0.251,5.157-0.251,1.384-0.251c-1.257,0-2.517,0.125-3.774,0.125c-0.881,0-1.761,0-2.642-0.125
				c-0.378,0-4.656-0.629-1.636-0.126c3.271,0.504-1.511-0.378-1.761-0.378c-1.007-0.251-2.014-0.378-2.894-0.629
				c-2.517-0.629-5.032-1.385-7.549-2.264c-1.007-0.378-2.14-0.755-3.146-1.133c-5.157-1.887,3.146,1.636-1.886-0.754
				s-9.939-5.032-14.721-7.927c-5.157-3.146-11.323-7.424-14.594-9.939c-10.946-8.681-20.634-18.62-29.691-29.314
				c-2.39-2.768-6.165-8.178-9.185-12.707c-3.396-5.284-6.417-10.694-9.059-16.355c-0.503-1.007-1.007-2.139-1.385-3.146
				c1.385,3.271,0-0.125-0.251-1.007c-0.754-2.265-1.635-4.529-2.264-6.793c-0.629-2.139-1.007-4.403-1.51-6.542
				c-0.251-1.258-0.378-4.529,0,0.125c-0.125-1.385-0.251-2.643-0.251-4.025c0-1.887,0.251-3.775,0.125-5.661
				c-0.125-2.39-1.51,4.403,0,0.881c0.251-0.629,0.378-1.636,0.629-2.139c1.132-4.907-1.51,2.517,0.503-1.007
				c2.014-3.523-3.02,2.643,0.629-0.881c4.025-3.9,7.927-7.927,11.827-11.827c3.649-3.649,7.549-7.171,11.071-11.071
				c12.203-13.084,13.084-32.711,1.132-46.299c-7.8-8.932-16.859-16.984-25.288-25.415c-3.146-3.146-6.165-6.417-9.436-9.436
				c-11.574-10.82-29.063-13.335-42.525-4.152c-10.694,7.296-19.376,18.369-28.433,27.427c-9.688,9.688-18.495,18.746-23.527,31.83
				c-6.668,17.488-5.032,37.618-0.881,55.609c5.158,22.395,15.474,43.782,27.427,63.284c28.937,47.306,70.33,88.698,117.383,118.012
				c19.376,12.078,40.637,22.395,62.78,27.93c17.991,4.529,38.373,6.543,56.238,0.251c8.933-3.146,16.859-7.8,23.779-14.469
				c7.297-7.046,7.172-19.502,0-26.673C131.079,127.902,119.001,128.154,111.704,135.2z"/>
		</g>
	</g>
	<g>
		<g>
			<path fill="#2EAC4A" d="M-167.853,223.143c47.179,43.406,106.815,70.077,170.728,75.991
				c55.106,5.157,111.344-6.668,160.034-32.586c94.862-50.325,154.875-153.24,151.982-260.559
				c-2.643-106.436-66.43-206.332-163.054-251.876c-48.689-23.023-103.545-32.711-157.141-26.043
				c-54.477,6.667-104.927,27.93-147.705,62.277c-89.2,71.336-126.818,194.256-94.61,303.587
				c4.781,16.23,11.198,32.083,18.62,47.307c0-6.292,0-12.707,0-18.998c-16.23,31.201-32.459,62.277-48.689,93.479
				c-2.39,4.528-4.656,8.932-7.045,13.462c-7.549,14.595,4.907,31.83,21.262,27.68c33.215-8.429,66.555-16.859,99.77-25.288
				c4.656-1.132,9.436-2.39,14.091-3.522c9.939-2.517,15.852-13.588,13.21-23.275c-2.768-10.064-13.335-15.727-23.276-13.21
				c-33.215,8.429-66.555,16.859-99.77,25.288c-4.656,1.132-9.436,2.39-14.091,3.521c7.046,9.185,14.217,18.495,21.263,27.68
				c14.72-27.68,29.189-55.484,43.657-83.414c3.271-6.164,6.417-12.33,9.688-18.495c0.754-1.385,1.51-2.893,2.265-4.277
				c0.503-1.007,0.754-1.511,1.257-2.768c3.397-8.429-0.25-15.099-3.774-22.647c-14.595-31.327-22.269-67.939-22.269-103.292
				c0-7.296,0.251-14.72,0.881-22.017c0.251-3.522,0.629-6.92,1.007-10.442c0.125-0.881,0.251-1.761,0.378-2.642
				c0,0.251-0.378,3.02-0.125,0.754c0.251-2.014,0.629-4.025,0.881-5.914c2.39-14.217,6.039-28.308,10.694-42.021
				c1.132-3.146,2.265-6.292,3.397-9.436c0.628-1.51,1.257-3.146,1.886-4.656c0.754-2.014-0.125,0.378-0.251,0.629
				c0.378-1.007,0.881-2.014,1.385-3.021c2.768-6.291,5.914-12.581,9.185-18.745c6.542-12.204,14.091-23.779,22.395-34.725
				c1.258-1.761-0.251,0.251-0.378,0.503c0.502-0.627,1.005-1.256,1.509-1.887c1.007-1.257,2.013-2.517,3.146-3.9
				c2.265-2.768,4.656-5.41,7.046-8.178c4.529-5.158,9.31-10.064,14.342-14.846c5.157-4.907,10.567-9.688,16.104-14.217
				c1.258-1.007,2.517-2.013,3.9-3.146c1.636-1.385-0.378,0.251-0.503,0.378c0.629-0.503,1.258-1.007,2.014-1.51
				c2.893-2.139,5.788-4.278,8.681-6.292c11.449-7.8,23.401-14.72,35.857-20.759c3.021-1.385,6.039-2.768,9.06-4.152
				c3.271-1.51-1.761,0.629,1.635-0.629c1.761-0.754,3.649-1.385,5.41-2.139c6.542-2.517,13.21-4.781,20.005-6.667
				c6.793-2.014,13.713-3.649,20.633-5.158c3.649-0.754,7.297-1.385,10.946-2.014c1.761-0.251,3.396-0.503,5.158-0.754
				c-3.522,0.503,1.51-0.125,2.768-0.378c14.595-1.636,29.314-2.139,43.909-1.385c7.297,0.378,14.47,1.007,21.767,1.886
				c-3.271-0.377,0.628,0.125,1.761,0.251c1.761,0.251,3.396,0.503,5.032,0.881c3.648,0.629,7.296,1.385,10.945,2.139
				c13.714,3.02,27.302,7.171,40.386,12.33c0.755,0.251,4.781,1.887,3.146,1.258c-1.635-0.629,2.391,1.007,3.146,1.384
				c3.521,1.636,7.045,3.271,10.567,5.032c6.164,3.146,12.203,6.417,18.242,9.939c5.913,3.522,11.7,7.297,17.362,11.324
				c1.385,1.007,2.643,1.886,4.025,2.893c0.629,0.503,4.025,3.021,2.643,2.014c-1.385-1.007,2.014,1.635,2.643,2.139
				c1.51,1.258,3.02,2.39,4.403,3.649c10.442,8.807,20.381,18.495,29.314,28.811c2.139,2.517,4.278,5.032,6.417,7.549
				c1.007,1.257,2.014,2.517,3.146,3.9c-2.139-2.643,0.881,1.258,1.51,2.139c4.152,5.536,7.928,11.198,11.575,17.11
				c3.774,6.039,7.423,12.33,10.694,18.746c1.51,3.02,3.019,5.913,4.403,8.932c0.754,1.51,1.385,3.02,2.139,4.529
				c0.378,0.754,0.629,1.51,1.007,2.264c0.126,0.378,1.511,3.522,0.629,1.636c-0.629-1.636,1.007,2.517,1.258,3.146
				c0.629,1.51,1.258,3.146,1.761,4.656c1.258,3.396,2.518,6.92,3.649,10.317c2.139,6.668,4.152,13.462,5.788,20.381
				c1.636,6.92,3.02,13.966,4.152,21.012c0.125,1.132,0.754,5.158,0.251,1.761c0.251,1.761,0.378,3.396,0.629,5.158
				c0.378,3.774,0.754,7.549,1.007,11.323c1.006,14.971,0.754,29.943-0.629,44.915c-0.126,1.761-0.378,3.396-0.504,5.157
				c-0.125,1.258-0.754,5.158-0.251,1.887c-0.503,3.648-1.132,7.424-1.761,11.071c-1.258,7.045-2.894,13.966-4.781,20.759
				c-1.887,6.793-3.9,13.463-6.291,20.13c-1.133,3.146-2.391,6.292-3.522,9.436c-0.251,0.755-0.629,1.511-1.007,2.39
				c0.126-0.25,1.133-2.642,0.251-0.628c-0.754,1.761-1.51,3.521-2.39,5.284c-5.788,12.581-12.456,24.784-20.131,36.233
				c-1.761,2.768-3.648,5.535-5.66,8.178c-1.007,1.385-1.887,2.643-2.894,4.025c-0.503,0.629-1.007,1.258-1.51,2.014
				c-1.762,2.265,1.761-2.139-0.126,0.125c-4.403,5.661-9.059,11.071-13.966,16.356c-9.31,10.064-19.374,19.374-30.194,28.056
				c-0.629,0.503-1.258,1.007-1.887,1.51c0.251-0.125,2.265-1.761,0.504-0.378c-1.385,1.007-2.643,2.014-4.025,2.894
				c-2.894,2.139-5.788,4.152-8.808,6.164c-5.787,3.9-11.574,7.424-17.613,10.82c-6.038,3.396-12.203,6.542-18.494,9.436
				c-1.51,0.754-3.021,1.385-4.529,2.014c-1.007,0.503-4.655,1.886-1.635,0.754c-3.397,1.385-6.794,2.643-10.191,3.9
				c-13.588,4.906-27.553,8.807-41.644,11.448c-3.396,0.629-6.794,1.133-10.191,1.762c-3.649,0.629,1.887-0.126-1.887,0.251
				c-2.014,0.251-4.025,0.503-6.039,0.628c-7.297,0.755-14.595,1.133-21.891,1.258c-8.43,0.126-16.859,0-25.163-0.629
				c-4.153-0.25-8.304-0.754-12.331-1.132c-2.264-0.251-0.503,0-0.125,0c-1.007-0.126-2.013-0.251-3.02-0.503
				c-2.39-0.378-4.656-0.755-7.046-1.133c-34.094-6.039-62.026-16.859-90.836-34.976c-6.668-4.152-13.084-8.682-19.376-13.463
				c-1.761-1.257-0.378-0.378,0,0c-0.754-0.629-1.51-1.257-2.264-1.886c-1.51-1.258-3.021-2.518-4.529-3.775
				c-3.271-2.768-6.417-5.535-9.563-8.429c-7.549-6.92-19.249-7.423-26.673,0C-174.771,203.517-175.402,216.223-167.853,223.143z"/>
		</g>
	</g>
</g>
<g>
	<g>
		<path fill="#2EAC4A" d="M125.04,148.535c-31.83,31.831-112.729,2.518-180.667-65.422C-123.565,15.174-152.88-65.724-121.05-97.554
			l32.962-32.962c5.788-5.788,15.098-5.788,20.885,0l33.718,33.718c5.788,5.788,5.788,15.098,0,20.884l-22.898,22.898
			c-17.74,17.74-2.139,62.655,35.605,100.523c37.743,37.869,83.665,54.225,101.405,36.486l22.772-22.898
			c5.788-5.787,15.098-5.787,20.885,0l33.718,33.719c5.788,5.788,5.788,15.098,0,20.885L125.04,148.535z"/>
		<g>
			<path fill="#2EAC4A" d="M111.704,135.2c-0.754,0.629-4.781,3.9-2.139,2.014c2.768-1.887-1.887,1.132-2.517,1.51
				c-0.882,0.504-2.769,1.887-3.9,1.887c2.014,0,3.522-1.132,1.385-0.629c-1.132,0.251-2.139,0.754-3.146,1.007
				c-1.511,0.378-3.021,0.754-4.529,1.007c-5.284,1.132,2.894,0-1.51,0.251c-4.025,0.251-8.053,0.378-12.203,0.125
				c-1.761-0.125-3.649-0.378-5.41-0.503c5.284,0.503-1.51-0.378-2.768-0.629c-4.529-0.882-8.933-2.014-13.336-3.396
				c-4.403-1.384-8.807-2.894-13.21-4.529c-1.007-0.378-2.139-0.881-3.146-1.258c3.271,1.385-0.251-0.125-1.132-0.503
				c-2.769-1.258-5.41-2.517-8.053-3.774c-21.012-10.442-40.386-23.779-57.12-38.122c-10.317-8.807-20.005-18.116-29.315-27.93
				c-8.303-8.807-17.488-19.501-23.652-27.805c-6.92-9.436-13.463-19.123-19.249-29.315c-2.643-4.529-5.158-9.31-7.424-13.966
				c-1.006-2.139-2.139-4.278-3.02-6.542c0.125,0.251-2.265-5.032-1.132-2.517c0.881,2.139-0.881-2.139-1.007-2.517
				c-3.522-8.807-6.291-17.866-8.052-27.176c-0.251-1.635-1.007-6.417-0.503-2.013c-0.251-2.014-0.503-4.025-0.629-6.165
				c-0.251-4.025,0.125-8.052,0.125-12.078c0-1.761-0.754-1.887-0.251,1.384c-0.125-0.503,0.251-1.761,0.378-2.264
				c0.378-1.636,0.754-3.396,1.258-5.032c0.251-0.754,0.503-1.385,0.629-2.139c1.007-3.649-0.125,1.132-0.503,0.881
				c-0.251-0.125,2.264-4.529,2.517-4.781c0.378-0.629,0.881-1.132,1.132-1.761c1.132-2.139-0.881,0.251-1.007,1.258
				c0.251-1.007,2.139-2.517,2.894-3.146c0.881-0.881,1.635-1.635,2.517-2.517c9.059-9.059,18.117-18.117,27.05-27.051
				c0.503-0.503,3.021-2.39,3.146-3.146c0,0-1.761,0.754-2.517,1.132c1.258-0.503,3.021-0.125-0.251-0.125
				c-2.013-0.378-2.39-0.503-1.006-0.125c1.257,0.378,1.006,0.251-0.754-0.251c-0.125-0.629-1.51-1.385,0.503,0.754
				c1.761,1.886,3.774,3.774,5.535,5.536c4.907,4.906,9.939,9.938,14.846,14.845c3.396,3.397,6.92,8.304,10.82,10.82
				c0,0,0.629,0.754,0.754,0.754c-0.629,0.125-1.258-2.517-1.258-2.643c0.503,1.007,0.378,3.271,0.125-0.251
				c-0.125-1.257,1.258-3.146-0.125-0.25c-0.125,0.25,0.881-2.894,1.258-2.643c-0.125,0-0.881,0.881-1.007,1.007
				c-4.781,4.152-9.059,9.059-13.462,13.462c-3.271,3.271-6.793,6.417-9.813,9.939c-7.046,8.052-10.317,17.613-11.198,28.183
				c-1.886,20.508,7.424,42.021,17.866,59.131c14.217,23.526,33.593,43.531,55.609,59.888
				c28.812,21.388,75.237,42.649,105.305,12.455c4.781-4.781,9.688-9.688,14.47-14.469c1.636-1.636,3.396-3.146,4.906-4.907
				c0,0,1.007-0.881,1.007-1.007c0.126,0.504-2.517,1.258-2.643,1.258c2.518-1.132,0.378-0.629-1.132-0.251
				c-0.251,0-0.629-0.125-0.881-0.125c2.139,0.629,2.139,0.629,0,0c0-0.126-1.133-0.755-1.133-0.755s0.629,0.629,0.755,0.755
				c1.132,1.761,3.271,3.271,4.655,4.655c4.781,4.781,9.688,9.688,14.47,14.47c4.152,4.152,8.052,8.429,12.33,12.33
				c1.636,1.51,1.385,2.014,0.378-0.503c-0.882-2.14-0.126,3.774-0.126-1.007c0-1.258,1.258-3.021-0.125-0.251
				c0.378-0.882,1.51-2.39,1.007-2.39c-0.755,0-2.517,2.517-3.021,3.02c-2.265,2.265-4.528,4.529-6.668,6.668
				c-5.157,5.157-10.191,10.191-15.349,15.349C116.862,130.166,114.22,132.684,111.704,135.2c-7.171,7.171-7.171,19.501,0,26.673
				c7.171,7.171,19.502,7.171,26.673,0c8.303-8.304,16.606-16.607,24.911-24.912c3.021-3.02,6.292-6.039,9.185-9.31
				c11.827-13.588,11.071-33.215-1.132-46.3c-8.053-8.556-16.606-16.606-24.912-24.911c-2.893-2.894-5.66-5.913-8.681-8.682
				c-13.085-12.077-32.712-13.084-46.3-1.132c-8.429,7.424-16.229,15.853-24.03,23.904c-0.628,0.629-3.271,2.391-0.628,0.755
				c2.893-1.887-0.378,0.125-0.755,0.251c-2.517,1.007,1.636,0.125,1.51-0.504c0,0.126-5.284,1.762-5.409,1.511
				c-0.126-0.251,5.157-0.251,1.384-0.251c-1.257,0-2.517,0.125-3.774,0.125c-0.881,0-1.761,0-2.642-0.125
				c-0.378,0-4.656-0.629-1.636-0.126c3.271,0.504-1.511-0.378-1.761-0.378c-1.007-0.251-2.014-0.378-2.894-0.629
				c-2.517-0.629-5.032-1.385-7.549-2.264c-1.007-0.378-2.14-0.755-3.146-1.133c-5.157-1.887,3.146,1.636-1.886-0.754
				s-9.939-5.032-14.721-7.927c-5.157-3.146-11.323-7.424-14.594-9.939c-10.946-8.681-20.634-18.62-29.691-29.314
				c-2.39-2.768-6.165-8.178-9.185-12.707c-3.396-5.284-6.417-10.694-9.059-16.355c-0.503-1.007-1.007-2.139-1.385-3.146
				c1.385,3.271,0-0.125-0.251-1.007c-0.754-2.265-1.635-4.529-2.264-6.793c-0.629-2.139-1.007-4.403-1.51-6.542
				c-0.251-1.258-0.378-4.529,0,0.125c-0.125-1.385-0.251-2.643-0.251-4.025c0-1.887,0.251-3.775,0.125-5.661
				c-0.125-2.39-1.51,4.403,0,0.881c0.251-0.629,0.378-1.636,0.629-2.139c1.132-4.907-1.51,2.517,0.503-1.007
				c2.014-3.523-3.02,2.643,0.629-0.881c4.025-3.9,7.927-7.927,11.827-11.827c3.649-3.649,7.549-7.171,11.071-11.071
				c12.203-13.084,13.084-32.711,1.132-46.299c-7.8-8.932-16.859-16.984-25.288-25.415c-3.146-3.146-6.165-6.417-9.436-9.436
				c-11.574-10.82-29.063-13.335-42.525-4.152c-10.694,7.296-19.376,18.369-28.433,27.427c-9.688,9.688-18.495,18.746-23.527,31.83
				c-6.668,17.488-5.032,37.618-0.881,55.609c5.158,22.395,15.474,43.782,27.427,63.284c28.937,47.306,70.33,88.698,117.383,118.012
				c19.376,12.078,40.637,22.395,62.78,27.93c17.991,4.529,38.373,6.543,56.238,0.251c8.933-3.146,16.859-7.8,23.779-14.469
				c7.297-7.046,7.172-19.502,0-26.673C131.079,127.902,119.001,128.154,111.704,135.2z"/>
		</g>
	</g>
	<g>
		<g>
			<path fill="#2EAC4A" d="M-167.853,223.143c47.179,43.406,106.815,70.077,170.728,75.991
				c55.106,5.157,111.344-6.668,160.034-32.586c94.862-50.325,154.875-153.24,151.982-260.559
				c-2.643-106.436-66.43-206.332-163.054-251.876c-48.689-23.023-103.545-32.711-157.141-26.043
				c-54.477,6.667-104.927,27.93-147.705,62.277c-89.2,71.336-126.818,194.256-94.61,303.587
				c4.781,16.23,11.198,32.083,18.62,47.307c0-6.292,0-12.707,0-18.998c-16.23,31.201-32.459,62.277-48.689,93.479
				c-2.39,4.528-4.656,8.932-7.045,13.462c-7.549,14.595,4.907,31.83,21.262,27.68c33.215-8.429,66.555-16.859,99.77-25.288
				c4.656-1.132,9.436-2.39,14.091-3.522c9.939-2.517,15.852-13.588,13.21-23.275c-2.768-10.064-13.335-15.727-23.276-13.21
				c-33.215,8.429-66.555,16.859-99.77,25.288c-4.656,1.132-9.436,2.39-14.091,3.521c7.046,9.185,14.217,18.495,21.263,27.68
				c14.72-27.68,29.189-55.484,43.657-83.414c3.271-6.164,6.417-12.33,9.688-18.495c0.754-1.385,1.51-2.893,2.265-4.277
				c0.503-1.007,0.754-1.511,1.257-2.768c3.397-8.429-0.25-15.099-3.774-22.647c-14.595-31.327-22.269-67.939-22.269-103.292
				c0-7.296,0.251-14.72,0.881-22.017c0.251-3.522,0.629-6.92,1.007-10.442c0.125-0.881,0.251-1.761,0.378-2.642
				c0,0.251-0.378,3.02-0.125,0.754c0.251-2.014,0.629-4.025,0.881-5.914c2.39-14.217,6.039-28.308,10.694-42.021
				c1.132-3.146,2.265-6.292,3.397-9.436c0.628-1.51,1.257-3.146,1.886-4.656c0.754-2.014-0.125,0.378-0.251,0.629
				c0.378-1.007,0.881-2.014,1.385-3.021c2.768-6.291,5.914-12.581,9.185-18.745c6.542-12.204,14.091-23.779,22.395-34.725
				c1.258-1.761-0.251,0.251-0.378,0.503c0.502-0.627,1.005-1.256,1.509-1.887c1.007-1.257,2.013-2.517,3.146-3.9
				c2.265-2.768,4.656-5.41,7.046-8.178c4.529-5.158,9.31-10.064,14.342-14.846c5.157-4.907,10.567-9.688,16.104-14.217
				c1.258-1.007,2.517-2.013,3.9-3.146c1.636-1.385-0.378,0.251-0.503,0.378c0.629-0.503,1.258-1.007,2.014-1.51
				c2.893-2.139,5.788-4.278,8.681-6.292c11.449-7.8,23.401-14.72,35.857-20.759c3.021-1.385,6.039-2.768,9.06-4.152
				c3.271-1.51-1.761,0.629,1.635-0.629c1.761-0.754,3.649-1.385,5.41-2.139c6.542-2.517,13.21-4.781,20.005-6.667
				c6.793-2.014,13.713-3.649,20.633-5.158c3.649-0.754,7.297-1.385,10.946-2.014c1.761-0.251,3.396-0.503,5.158-0.754
				c-3.522,0.503,1.51-0.125,2.768-0.378c14.595-1.636,29.314-2.139,43.909-1.385c7.297,0.378,14.47,1.007,21.767,1.886
				c-3.271-0.377,0.628,0.125,1.761,0.251c1.761,0.251,3.396,0.503,5.032,0.881c3.648,0.629,7.296,1.385,10.945,2.139
				c13.714,3.02,27.302,7.171,40.386,12.33c0.755,0.251,4.781,1.887,3.146,1.258c-1.635-0.629,2.391,1.007,3.146,1.384
				c3.521,1.636,7.045,3.271,10.567,5.032c6.164,3.146,12.203,6.417,18.242,9.939c5.913,3.522,11.7,7.297,17.362,11.324
				c1.385,1.007,2.643,1.886,4.025,2.893c0.629,0.503,4.025,3.021,2.643,2.014c-1.385-1.007,2.014,1.635,2.643,2.139
				c1.51,1.258,3.02,2.39,4.403,3.649c10.442,8.807,20.381,18.495,29.314,28.811c2.139,2.517,4.278,5.032,6.417,7.549
				c1.007,1.257,2.014,2.517,3.146,3.9c-2.139-2.643,0.881,1.258,1.51,2.139c4.152,5.536,7.928,11.198,11.575,17.11
				c3.774,6.039,7.423,12.33,10.694,18.746c1.51,3.02,3.019,5.913,4.403,8.932c0.754,1.51,1.385,3.02,2.139,4.529
				c0.378,0.754,0.629,1.51,1.007,2.264c0.126,0.378,1.511,3.522,0.629,1.636c-0.629-1.636,1.007,2.517,1.258,3.146
				c0.629,1.51,1.258,3.146,1.761,4.656c1.258,3.396,2.518,6.92,3.649,10.317c2.139,6.668,4.152,13.462,5.788,20.381
				c1.636,6.92,3.02,13.966,4.152,21.012c0.125,1.132,0.754,5.158,0.251,1.761c0.251,1.761,0.378,3.396,0.629,5.158
				c0.378,3.774,0.754,7.549,1.007,11.323c1.006,14.971,0.754,29.943-0.629,44.915c-0.126,1.761-0.378,3.396-0.504,5.157
				c-0.125,1.258-0.754,5.158-0.251,1.887c-0.503,3.648-1.132,7.424-1.761,11.071c-1.258,7.045-2.894,13.966-4.781,20.759
				c-1.887,6.793-3.9,13.463-6.291,20.13c-1.133,3.146-2.391,6.292-3.522,9.436c-0.251,0.755-0.629,1.511-1.007,2.39
				c0.126-0.25,1.133-2.642,0.251-0.628c-0.754,1.761-1.51,3.521-2.39,5.284c-5.788,12.581-12.456,24.784-20.131,36.233
				c-1.761,2.768-3.648,5.535-5.66,8.178c-1.007,1.385-1.887,2.643-2.894,4.025c-0.503,0.629-1.007,1.258-1.51,2.014
				c-1.762,2.265,1.761-2.139-0.126,0.125c-4.403,5.661-9.059,11.071-13.966,16.356c-9.31,10.064-19.374,19.374-30.194,28.056
				c-0.629,0.503-1.258,1.007-1.887,1.51c0.251-0.125,2.265-1.761,0.504-0.378c-1.385,1.007-2.643,2.014-4.025,2.894
				c-2.894,2.139-5.788,4.152-8.808,6.164c-5.787,3.9-11.574,7.424-17.613,10.82c-6.038,3.396-12.203,6.542-18.494,9.436
				c-1.51,0.754-3.021,1.385-4.529,2.014c-1.007,0.503-4.655,1.886-1.635,0.754c-3.397,1.385-6.794,2.643-10.191,3.9
				c-13.588,4.906-27.553,8.807-41.644,11.448c-3.396,0.629-6.794,1.133-10.191,1.762c-3.649,0.629,1.887-0.126-1.887,0.251
				c-2.014,0.251-4.025,0.503-6.039,0.628c-7.297,0.755-14.595,1.133-21.891,1.258c-8.43,0.126-16.859,0-25.163-0.629
				c-4.153-0.25-8.304-0.754-12.331-1.132c-2.264-0.251-0.503,0-0.125,0c-1.007-0.126-2.013-0.251-3.02-0.503
				c-2.39-0.378-4.656-0.755-7.046-1.133c-34.094-6.039-62.026-16.859-90.836-34.976c-6.668-4.152-13.084-8.682-19.376-13.463
				c-1.761-1.257-0.378-0.378,0,0c-0.754-0.629-1.51-1.257-2.264-1.886c-1.51-1.258-3.021-2.518-4.529-3.775
				c-3.271-2.768-6.417-5.535-9.563-8.429c-7.549-6.92-19.249-7.423-26.673,0C-174.771,203.517-175.402,216.223-167.853,223.143z"/>
		</g>
	</g>
</g>
<g>
	<path fill="#2EAC4A" d="M17.612,3.07c0.333,0.134,0.667,0.2,1,0.333l0,0c0.332,0.133,0.665,0.267,0.998,0.467
		c0.335,0.133,0.668,0.333,0.935,0.533l0,0c0.331,0.2,0.6,0.4,0.934,0.599c0.266,0.201,0.53,0.4,0.798,0.734
		c0.266,0.267,0.532,0.466,0.732,0.732c0.268,0.267,0.467,0.601,0.667,0.866l0,0c0.201,0.334,0.4,0.601,0.6,0.934
		c0.201,0.333,0.333,0.6,0.467,0.933l0,0c0.2,0.333,0.332,0.666,0.399,1l0,0c0.134,0.333,0.2,0.667,0.334,0.999
		c0.067,0.401,0.132,0.734,0.198,1.067l0,0c0.068,0.4,0.135,0.733,0.135,1.067l0,0c0,0.399,0,0.732-0.066,1.067
		c0,0.398-0.068,0.732-0.135,1.064l0,0c-0.064,0.399-0.132,0.732-0.266,1.067c-0.134,0.332-0.2,0.665-0.332,0.999l0,0
		c-0.136,0.333-0.268,0.667-0.401,0.998c-0.199,0.334-0.333,0.669-0.532,0.935l0,0c-0.199,0.332-0.4,0.599-0.601,0.867l0,0
		c-0.199,0.266-0.467,0.53-0.667,0.798c-0.267,0.266-0.532,0.531-0.8,0.732c-0.265,0.201-0.53,0.468-0.864,0.667l0,0
		c-0.334,0.201-0.6,0.401-0.866,0.601l-0.202,0.133l0,0c-0.266,0.132-0.531,0.266-0.799,0.399c-0.333,0.133-0.665,0.267-0.998,0.399
		l0,0c-0.334,0.135-0.667,0.2-1.068,0.335l0,0c-0.333,0.065-0.665,0.131-1.064,0.199H16.08h-0.067
		c-0.334,0.066-0.667,0.066-0.998,0.066l0,0c-0.335,0-0.735,0-1.068,0c-0.332-0.066-0.733-0.066-1.065-0.135l0,0
		c-0.333-0.065-0.733-0.131-1.066-0.266c-0.2-0.065-0.4-0.133-0.667-0.2l0,0c-0.2-0.065-0.466-0.133-0.666-0.267
		c-0.267-0.066-0.467-0.199-0.667-0.267c-0.199-0.134-0.399-0.199-0.599-0.331c-0.2-0.135-0.4-0.201-0.534-0.335l0,0
		c-0.2-0.132-0.332-0.198-0.465-0.267l0,0l0.066,0.068c-0.133-0.135-0.333-0.201-0.466-0.334c-0.133-0.066-0.201-0.135-0.334-0.267
		l-5.33,0.267H1.82l-0.6,0.067H0.886H0.154l0.4-0.668l0.199-0.334l0,0l0.267-0.399l0,0H0.953l0.2-0.398l0,0l2.799-4.798
		c-0.066-0.136-0.066-0.266-0.066-0.4l-0.067-0.266l0,0l-0.067-0.2v-0.134l0,0c-0.067-0.199-0.067-0.398-0.067-0.6l0.067-0.066
		c-0.067-0.2-0.067-0.4-0.067-0.599l0,0c0-0.267,0-0.467,0.067-0.734l0,0c0-0.199,0.067-0.466,0.067-0.666
		c0.067-0.266,0.067-0.466,0.133-0.732c0.067-0.267,0.133-0.467,0.2-0.667c0.133-0.333,0.201-0.667,0.333-1l0,0
		c0.133-0.4,0.267-0.666,0.399-1C5.085,8.4,5.219,8.068,5.418,7.801l0,0c0.201-0.332,0.4-0.6,0.6-0.866l0,0
		c0.2-0.333,0.466-0.6,0.667-0.8c0.266-0.2,0.533-0.399,0.799-0.666l0,0C7.75,5.203,8.017,5.002,8.35,4.803
		c0.267-0.267,0.599-0.4,0.866-0.6c0.333-0.2,0.599-0.333,0.933-0.534l0,0c0.333-0.133,0.667-0.267,1-0.399
		c0.333-0.133,0.667-0.267,1.066-0.333c0.333-0.134,0.733-0.2,1.066-0.2c0.333-0.066,0.732-0.066,1.066-0.066l0,0
		c0.332,0,0.731,0,1.064,0.066c0.401,0.066,0.734,0.066,1.068,0.133l0,0C16.878,2.937,17.278,3.003,17.612,3.07z M7.616,19.795
		h0.401H8.15l0,0h0.067l0.2-0.066l0.133,0.134l0.067,0.066l0.133,0.067c0.134,0.133,0.267,0.267,0.4,0.399
		c0.133,0.134,0.267,0.267,0.4,0.334l0,0c0.133,0.131,0.333,0.198,0.466,0.332c0.133,0.133,0.333,0.2,0.467,0.332
		c0.2,0.067,0.333,0.201,0.533,0.266l0,0c0.133,0.068,0.266,0.136,0.333,0.201l0,0h0.067l0.133,0.067c0.2,0.067,0.4,0.134,0.533,0.2
		c0.2,0.065,0.333,0.134,0.533,0.2c0.268,0.067,0.6,0.133,0.867,0.199c0.266,0.066,0.533,0.135,0.867,0.135
		c0.266,0.066,0.531,0.066,0.865,0.066l0,0c0.268-0.066,0.534-0.066,0.8-0.066l0,0c0.334-0.068,0.6-0.135,0.865-0.201
		c0.268-0.065,0.533-0.133,0.801-0.268c0.267-0.065,0.533-0.198,0.799-0.333c0.267-0.133,0.534-0.266,0.8-0.399
		c0.268-0.199,0.468-0.333,0.734-0.467s0.466-0.332,0.665-0.533c0.199-0.198,0.4-0.399,0.601-0.599c0.201-0.2,0.4-0.399,0.533-0.665
		c0.198-0.269,0.333-0.468,0.466-0.734c0.133-0.266,0.266-0.466,0.4-0.732c0.132-0.267,0.266-0.534,0.332-0.801
		c0.135-0.267,0.2-0.533,0.268-0.8c0.066-0.267,0.134-0.531,0.199-0.798c0.067-0.268,0.067-0.6,0.134-0.867
		c0.066-0.267,0.066-0.6,0-0.866c0-0.266,0-0.533-0.066-0.8l-0.067-0.066c-0.065-0.266-0.065-0.532-0.133-0.866
		c-0.066-0.267-0.134-0.534-0.267-0.8c-0.134-0.267-0.199-0.533-0.334-0.799C22.609,10,22.476,9.733,22.344,9.534
		c-0.268-0.533-0.6-1-1-1.399c-0.333-0.4-0.733-0.801-1.133-1.133l0,0l-0.067-0.067c-0.267-0.2-0.467-0.333-0.732-0.533
		c-0.266-0.133-0.467-0.267-0.732-0.4c-0.267-0.133-0.533-0.267-0.799-0.333c-0.268-0.067-0.534-0.2-0.801-0.267
		c-0.269-0.133-0.599-0.133-0.799-0.2c-0.4-0.133-0.668-0.133-0.935-0.201c-0.331,0-0.598,0-0.866,0
		c-0.331,0-0.599,0.067-0.865,0.067c-0.333,0.066-0.601,0.133-0.867,0.133c-0.268,0.067-0.533,0.2-0.8,0.267
		c-0.266,0.133-0.533,0.2-0.799,0.333c-0.267,0.133-0.533,0.266-0.799,0.399l0,0l0,0c-0.267,0.133-0.467,0.333-0.733,0.467
		C9.35,6.869,9.149,7.002,8.949,7.201c-0.2,0.2-0.4,0.4-0.599,0.6c-0.2,0.201-0.4,0.4-0.6,0.667L7.684,8.601
		c-0.133,0.2-0.267,0.4-0.4,0.6c-0.133,0.266-0.267,0.533-0.4,0.732c-0.133,0.267-0.266,0.534-0.333,0.8
		c-0.133,0.267-0.2,0.533-0.267,0.799c-0.066,0.2-0.066,0.4-0.133,0.533c-0.066,0.2-0.066,0.333-0.133,0.533
		c-0.067,0.199-0.067,0.4-0.067,0.533c0,0.2,0,0.4,0,0.533l0,0c-0.067,0.199,0,0.399,0,0.533c0,0.201,0.067,0.4,0.067,0.534
		c0.066,0.199,0.066,0.332,0.133,0.532c0.067,0.199,0.067,0.334,0.133,0.533l0.067,0.133v0.066l0,0v0.066l0.067,0.2l-0.134,0.067
		l-0.066,0.065l0,0L6.15,16.464l0,0l-0.066,0.067l-0.201,0.533L5.619,17.53l-0.4,0.667l0,0l-1,1.731l3.199-0.134H7.616L7.616,19.795
		L7.616,19.795L7.616,19.795L7.616,19.795z"/>
	<path fill="#2EAC4A" d="M11.281,7.069C9.417,7.868,8.883,9.534,9.216,11.4c0.2,1.132,0.599,2.266,1.333,3.598
		c0.732,1.333,1.666,2.666,2.599,3.665c2.666,2.73,6.996,2.265,5.531-0.135c-0.733-1.131-1.134-2.064-1.134-2.064
		s-0.334-0.666-0.933-0.268c-0.666,0.4-1.267,0.868-1.598,0.801c-0.468-0.067-4.266-4.865-2.8-5.665
		c0.667-0.333,1.799-0.666,1.266-1.466c-0.333-0.6-1.6-2.666-1.6-2.666S11.748,6.802,11.281,7.069z"/>
</g>
</svg>
